PathFileType	4	(X/Y/Z)	Patient4_TMGait_0pt3_03_left_30.trc.trc
DataRate	CameraRate	NumFrames	NumMarkers	Units	OrigDataRate	OrigDataStartFrame	OrigNumFrames
53.231939163498	53.231939163498	4	33	mm	53.231939163498	53	       141
Frame#	Time	Sacral			L.Shoulder			Chest			R.Shoulder			Neck			R.ASIS			L.ASIS			R.Thigh.Superior			R.Thigh.Lateral			R.Thigh.Inferior			R.Patella			L.Thigh.Superior			L.Thigh.Lateral			L.Thigh.Inferior			L.Patella			L.Shank.Superior			L.Shank.Lateral			L.Shank.Inferior			R.Shank.Superior			R.Shank.Lateral			R.Shank.Inferior			R.Heel			R.Midfoot.Superior			R.Midfoot.Lateral			R.Toe			L.Heel			L.Midfoot.Lateral			L.Midfoot.Superior			L.Toe			L.Elbow			L.Wrist			R.Elbow			R.Wrist			
		X1	Y1	Z1	X2	Y2	Z2	X3	Y3	Z3	X4	Y4	Z4	X5	Y5	Z5	X6	Y6	Z6	X7	Y7	Z7	X8	Y8	Z8	X9	Y9	Z9	X10	Y10	Z10	X11	Y11	Z11	X12	Y12	Z12	X13	Y13	Z13	X14	Y14	Z14	X15	Y15	Z15	X16	Y16	Z16	X17	Y17	Z17	X18	Y18	Z18	X19	Y19	Z19	X20	Y20	Z20	X21	Y21	Z21	X22	Y22	Z22	X23	Y23	Z23	X24	Y24	Z24	X25	Y25	Z25	X26	Y26	Z26	X27	Y27	Z27	X28	Y28	Z28	X29	Y29	Z29	X30	Y30	Z30	X31	Y31	Z31	X32	Y32	Z32	X33	Y33	Z33	

53	54.136857142857	686.315883776783	998.770784455615	459.379415779365	884.209112013241	1419.894170354009	276.760955256747	980.026582635379	1348.252032304481	440.560677344984	896.767070397043	1423.996976772437	612.517785211199	860.116805268346	1483.778365796008	434.404442304403	912.943195352446	927.719642787386	578.838525377697	904.295612101424	948.083208510353	305.843501297196	967.429634758351	733.312334875458	554.871178830204	901.113249410681	622.330139689393	625.565444328603	981.570435933036	565.878322170274	546.765335986617	976.578128042948	453.733285135880	573.162284055715	967.588733964416	747.287126258305	353.502325470032	898.793984839401	619.294216831190	295.985913197739	984.635265706106	553.407818985492	372.134209522427	990.708257661466	478.524153205347	382.570833547641	953.172060127789	404.130146651730	375.131612992574	857.128283293103	299.168243649629	316.907154406585	883.391740473074	185.321010944599	393.528170190190	889.715528082073	393.374074146599	584.735950300144	762.825648698253	375.895615923508	645.112091594816	734.764062019345	265.932562489715	603.754270363211	528.456763175711	234.944033844876	571.505326806309	681.970703710336	149.444154073905	627.127594647874	572.692195387073	172.463238651172	652.622464764252	724.572237354008	33.353143175393	665.324615559735	736.187709413301	39.048822412430	422.832202657840	816.169659893165	36.339573899035	348.337078940598	898.610073214993	95.175953133972	383.047099914933	1027.952204879954	39.921814200538	362.473084045199	925.919007297157	1075.215037058282	143.988763876337	1051.884524686103	846.572015157533	146.110904543727	932.710361459468	1070.694254668962	723.880287688938	1096.051963193742	869.819363146510	732.745767528952	
54	54.155642857143	685.103792718011	996.530066160605	456.295437328934	884.927902115473	1418.975340807445	276.439367114776	978.524509042073	1347.015789286485	441.305392297633	892.674150210961	1421.573410075520	612.595713674322	858.958094721523	1482.324577232643	434.189701390303	911.363242731917	927.129860822010	577.829530089353	904.863239353477	946.668276236738	304.653969435775	971.857930677855	736.117376792967	551.981331251973	910.183064766581	623.236164855486	622.871615874867	991.618089746776	569.263367613480	542.908124848862	989.845250625294	456.113178471965	569.379949536123	968.277894676072	745.622447471386	353.094940533336	899.885267255449	617.408633007180	295.932394429917	985.140346434062	551.706026608277	373.146054117656	991.018438145967	476.521990139364	383.875100046451	952.418985446107	402.104514907400	376.168941394803	855.267736999433	298.405620064162	317.391375337688	879.358767241220	184.252610507104	394.031357098523	902.524947827558	395.072397223920	581.543366828407	775.055383926202	378.632942020482	641.632640135871	746.522723533826	268.545589531797	600.973334209063	539.832740880627	238.440878860670	568.332020602981	693.256161252613	152.830723620550	624.955539511186	583.758199345553	176.435717887005	650.128568063624	735.294283527364	35.154558216068	664.479975191790	730.544466261761	39.033303021862	422.785716395073	810.542793954661	36.320280446405	348.297961017072	892.984256551146	95.044390957793	383.219843140953	1022.314770071022	39.868803719298	362.446246137399	934.350190127256	1076.254882336524	142.051661050175	1069.589368405317	853.042725458648	144.380950316094	912.974843042281	1066.127473869902	722.857432408719	1057.120813586578	851.283826694853	736.273804055703	
55	54.174428571429	683.928791543170	994.390933838653	453.437088198880	885.642430719398	1418.142465357925	276.432920758261	976.988111102547	1345.866510045054	442.357310549891	888.474498934304	1419.239566817590	612.906213882544	857.807038325920	1480.957411381548	434.277959302796	909.711611268321	926.613390692334	577.158930635073	905.484368204933	945.362413755506	303.797043156364	975.742302704059	739.094025788867	549.425587779445	918.532839344966	624.483327628905	620.420550268477	1000.819113675966	572.988002321351	539.331821686786	1002.386153675561	459.094462907501	565.759035647189	968.877009114012	743.959549452611	352.872453821621	900.757506780301	615.588363139468	296.005382703972	985.365655938872	550.010265635534	374.222317736736	991.001026690693	474.583659833920	385.270514649785	951.402794615629	400.162683863579	377.253480518658	853.241439541106	297.670088338990	317.895304930287	875.249320994752	183.231089404824	394.528316247932	915.100504984684	396.991834934449	578.536327107384	787.289018932723	380.426567018606	638.355613999629	759.258627487676	270.024417902096	598.297643158007	552.367620362841	238.308320175561	565.437355051080	706.789183716708	155.003940968941	622.850475253930	596.940539220143	177.531336560861	647.847144828906	749.970255780039	37.000909805109	663.540782587788	724.899852817131	39.025391844297	422.739476884675	804.923669315445	36.302852060328	348.257970740447	887.367968481029	94.908881547944	383.388792830320	1016.685475080634	39.808544745146	362.421514626975	942.239782244925	1077.585263443023	140.333460710220	1087.309795145474	860.617022643689	142.993264894772	892.940410305357	1062.521000360043	721.780924746628	1017.039772061197	835.646730104467	738.913973922529	
56	54.193214285714	682.806522618619	992.506981988668	450.813440750416	886.394643632249	1417.509025297839	276.741591959478	975.456631007182	1344.920091009002	443.718404237294	884.223028347986	1417.154865863385	613.434298292666	856.693658007283	1479.801685997142	434.649697695732	907.987890697311	926.253392519226	576.820891337927	906.155935704101	944.293971027146	303.281889296793	979.024407143792	742.238561070096	547.270673836409	926.007503919207	626.077160057263	618.279540986684	1009.031753467422	576.999120428039	536.149152714470	1014.001976536101	462.670878259988	562.437877697948	969.279862211911	742.356634338882	352.786923868278	901.213958822131	613.941086939398	296.142986837729	985.091233662002	548.376115280843	375.263653279649	990.412415792823	472.790380927518	386.644232293914	949.919892451841	398.396331670278	378.288517019535	850.888357038591	296.994517966620	318.358037234613	870.991705291854	182.305335617842	394.978682092695	927.315388550065	399.121518838196	575.827182386800	799.471470011856	381.167844802710	635.426836591168	773.001639706130	270.277579174865	595.857249642112	566.249899140925	234.453978118693	562.963158077593	722.639418773479	155.776238665812	620.916919480123	612.360103234072	175.607256414775	645.884184395327	768.603653539481	38.670858812603	662.551374376373	719.248368769408	39.022493927667	422.691428771241	799.307090752739	36.285167368097	348.215078312015	881.754681526251	94.776156365304	383.538603488564	1011.060815112554	39.744307735644	362.397790846499	949.683763324939	1079.282768022246	138.844381581442	1104.932800782829	869.354323550718	141.953859320491	872.740944890993	1060.074367499195	720.676127751177	976.428889853955	823.209089510756	740.626660851067	
